<svg viewBox="0 0 512 512" xmlns="http://www.w3.org/2000/svg" role="img" aria-labelledby="title desc">
  <title id="title">waspflow logo</title>
  <desc id="desc">A geometric wasp built from terminal panes and flowing worker-agent lanes.</desc>
  <defs>
    <linearGradient id="bg" x1="64" y1="32" x2="448" y2="480" gradientUnits="userSpaceOnUse">
      <stop offset="0" stop-color="#171915"/>
      <stop offset="1" stop-color="#050605"/>
    </linearGradient>
    <linearGradient id="amber" x1="210" y1="92" x2="302" y2="410" gradientUnits="userSpaceOnUse">
      <stop offset="0" stop-color="#FFE082"/>
      <stop offset="0.5" stop-color="#F5A524"/>
      <stop offset="1" stop-color="#B35A00"/>
    </linearGradient>
    <linearGradient id="green" x1="126" y1="130" x2="386" y2="368" gradientUnits="userSpaceOnUse">
      <stop offset="0" stop-color="#D9FF66"/>
      <stop offset="1" stop-color="#6EEA66"/>
    </linearGradient>
    <clipPath id="abdomen">
      <path d="M256 184 C300 218 326 266 318 326 C311 380 276 420 256 438 C236 420 201 380 194 326 C186 266 212 218 256 184Z"/>
    </clipPath>
  </defs>

  <rect width="512" height="512" rx="96" fill="url(#bg)"/>

  <g fill="none" stroke="#2F342B" stroke-width="2" opacity="0.75">
    <path d="M108 160H404"/>
    <path d="M108 256H404"/>
    <path d="M108 352H404"/>
    <path d="M160 108V404"/>
    <path d="M256 108V404"/>
    <path d="M352 108V404"/>
  </g>

  <g fill="none" stroke="url(#green)" stroke-linecap="round" stroke-linejoin="round" opacity="0.9">
    <path d="M96 286 C150 286 160 218 224 218" stroke-width="12"/>
    <path d="M416 286 C362 286 352 218 288 218" stroke-width="12"/>
    <path d="M126 360 C178 332 190 306 220 300" stroke-width="8" opacity="0.65"/>
    <path d="M386 360 C334 332 322 306 292 300" stroke-width="8" opacity="0.65"/>
  </g>

  <g opacity="0.88">
    <path d="M238 176 C169 116 88 154 90 230 C92 302 180 304 244 218Z" fill="url(#green)" opacity="0.34"/>
    <path d="M274 176 C343 116 424 154 422 230 C420 302 332 304 268 218Z" fill="url(#green)" opacity="0.34"/>
    <path d="M238 176 C169 116 88 154 90 230 C92 302 180 304 244 218" fill="none" stroke="#BFFF65" stroke-width="5" stroke-linecap="round" opacity="0.72"/>
    <path d="M274 176 C343 116 424 154 422 230 C420 302 332 304 268 218" fill="none" stroke="#BFFF65" stroke-width="5" stroke-linecap="round" opacity="0.72"/>
  </g>

  <g stroke="#0B0C09" stroke-width="7" stroke-linejoin="round">
    <path d="M256 82 L299 128 L276 184 H236 L213 128Z" fill="url(#amber)"/>
    <path d="M236 170 H276 L300 213 L278 252 H234 L212 213Z" fill="#1F211C"/>
    <path d="M256 184 C300 218 326 266 318 326 C311 380 276 420 256 438 C236 420 201 380 194 326 C186 266 212 218 256 184Z" fill="url(#amber)"/>
  </g>

  <g clip-path="url(#abdomen)">
    <path d="M178 250H334" stroke="#10110F" stroke-width="24"/>
    <path d="M176 304H336" stroke="#10110F" stroke-width="26"/>
    <path d="M183 360H329" stroke="#10110F" stroke-width="25"/>
  </g>

  <g fill="none" stroke="#D9FF66" stroke-linecap="round" stroke-width="8">
    <path d="M234 108 C208 88 184 82 164 92"/>
    <path d="M278 108 C304 88 328 82 348 92"/>
  </g>

  <rect x="302" y="372" width="58" height="18" rx="4" fill="#D9FF66"/>
</svg>
